<svg width="161" height="161" viewBox="0 0 161 161" fill="none" xmlns="http://www.w3.org/2000/svg">
<path fill-rule="evenodd" clip-rule="evenodd" d="M160.021 80.3866C160.492 120.57 127.699 159.701 80.6772 160.148C36.3961 160.57 -0.0151783 125.094 0.00122624 80.3471C0.0183764 34.1602 37.109 0.714327 78.8854 0.159556C123.329 -0.431752 160.11 35.4091 160.021 80.3866Z" fill="#231F20"/>
<path fill-rule="evenodd" clip-rule="evenodd" d="M31.6596 19.2385C34.3522 16.9001 37.3274 14.9621 40.3824 13.148C49.5316 7.71433 59.387 4.19929 69.947 2.96597C93.2668 0.243562 113.969 6.45566 131.647 21.9654C145.057 33.7304 153.257 48.5862 156.612 66.1047C157.227 69.3148 157.552 72.5659 157.764 75.8259C157.837 76.928 157.798 76.9474 156.78 76.5343C151.225 74.2801 145.799 71.721 140.199 69.575C135.719 67.8585 131.142 66.4641 126.434 65.5336C125.596 65.368 125.248 65.0101 125.036 64.1847C122.158 52.9461 111.995 44.5313 100.477 43.7998C88.5953 43.0444 78.2485 49.1641 73.2183 59.962C72.8715 60.7069 72.4674 60.9463 71.6531 60.9709C57.9233 61.3869 44.4738 63.5777 31.2793 67.3858C21.9444 70.0798 12.831 73.404 3.79134 76.9414C3.32232 77.1248 2.84733 77.2926 2.28809 77.4992C2.15088 76.5223 2.29778 75.6298 2.3634 74.735C3.64817 57.2083 10.1362 41.8611 21.676 28.6316C22.2792 27.9396 22.9294 27.2886 23.558 26.6183C23.8392 27.0963 23.4551 27.3923 23.2359 27.7137C21.2987 30.5517 19.8648 33.6007 19.3219 37.0217C18.6755 41.096 19.4293 44.8064 22.3732 47.8465C23.9749 49.5011 25.9829 50.5249 28.2415 51.0036C32.5432 51.9156 36.6936 51.2952 40.7366 49.7024C44.5387 48.2044 47.912 45.9883 50.7851 43.1265C54.6327 39.2938 57.5012 34.8399 58.2312 29.3057C59.2319 21.723 54.828 16.5042 47.9538 15.5281C42.673 14.7787 37.8441 16.2238 33.2546 18.7315C32.7714 18.9977 32.3583 19.6039 31.6596 19.2385Z" fill="#F13E2D"/>
<path fill-rule="evenodd" clip-rule="evenodd" d="M28.878 88.4034C36.225 86.417 43.6652 84.8906 51.1949 83.7811C56.2348 83.0384 61.2971 82.5262 66.375 82.1571C68.3324 82.0146 70.2972 81.9759 72.2553 81.8349C72.8734 81.7902 73.0598 82.1153 73.2746 82.5724C76.7531 89.985 82.3232 95.1427 90.1571 97.5519C99.5934 100.453 108.238 98.6354 115.947 92.4777C118.013 90.8291 119.772 88.8747 121.211 86.6534C121.576 86.0897 121.93 85.9323 122.61 86.0748C132.28 88.0895 141.684 90.9954 150.925 94.4552C152.349 94.9884 153.748 95.5931 155.195 96.0554C155.953 96.297 155.997 96.6907 155.842 97.323C155.058 100.526 154.16 103.693 152.998 106.781C151.389 111.059 149.524 115.215 147.125 119.117C146.894 119.492 146.613 119.835 146.355 120.192C145.542 121.396 144.321 122.184 143.27 123.134C140.28 125.837 137.081 128.284 133.672 130.449C127.598 134.308 121.074 137.124 114.137 139.008C109.929 140.15 105.644 140.884 101.306 141.181C89.6128 141.983 78.3764 140.072 67.6396 135.31C62.5967 133.073 57.8775 130.285 53.5198 126.922C49.116 123.522 45.1446 119.664 41.6646 115.293C35.5502 107.612 31.2097 99.0567 28.661 89.5838C28.5439 89.1551 28.3508 88.7122 28.878 88.4034Z" fill="#FEFEFE"/>
<path fill-rule="evenodd" clip-rule="evenodd" d="M28.8782 88.4038C28.653 88.6954 28.7507 88.9906 28.8334 89.3061C30.5485 95.8544 33.1642 102.03 36.6934 107.793C40.9996 114.825 46.3728 120.93 52.8586 126.06C61.6007 132.976 71.4405 137.497 82.3331 139.74C85.8727 140.469 89.4623 140.851 93.0832 141.015C102.328 141.436 111.284 140.043 119.972 136.91C125.272 134.999 130.249 132.451 134.941 129.317C138.643 126.843 141.981 123.936 145.309 121.004C145.64 120.713 146.005 120.461 146.354 120.191C145.722 121.828 144.61 123.175 143.636 124.597C140.546 129.109 136.891 133.145 132.903 136.869C128.379 141.093 123.395 144.704 117.988 147.735C111.707 151.256 105.067 153.834 98.0657 155.496C93.9124 156.482 89.7129 157.117 85.4477 157.415C83.6163 157.543 81.7798 157.583 79.9544 157.631C77.4326 157.697 74.8929 157.503 72.3763 157.261C65.4021 156.591 58.6345 154.985 52.0921 152.474C43.6937 149.25 36.0634 144.735 29.2473 138.849C16.4585 127.804 8.07351 114.077 4.05068 97.6671C3.84115 96.8111 4.08274 96.5166 4.84331 96.2273C12.3469 93.3744 19.9444 90.8138 27.6956 88.7155C28.0893 88.6089 28.4837 88.5075 28.8782 88.4038Z" fill="#A09D9D"/>
<path fill-rule="evenodd" clip-rule="evenodd" d="M7.92663 76.9737C11.6743 75.5435 15.4324 74.1432 19.2249 72.8316C23.5199 71.3462 27.829 69.9026 32.221 68.7491C37.6882 67.3137 43.1695 65.9245 48.7508 64.9753C53.0793 64.2393 57.4183 63.6018 61.7968 63.2357C64.5379 63.0067 67.2745 62.751 70.0259 62.6511C71.1295 62.6115 72.2353 62.4915 73.3426 62.5124C73.8653 62.5221 74.0436 62.2491 74.2106 61.8249C76.3394 56.4248 79.9052 52.2059 84.8213 49.1531C88.0068 47.1749 91.4853 45.9729 95.2248 45.5389C102.227 44.7269 108.56 46.4404 114.153 50.6907C119.125 54.4689 122.31 59.4678 123.697 65.5658C123.89 66.4129 124.268 66.7432 125.077 66.8968C133.278 68.4545 140.993 71.4588 148.586 74.8284C151.538 76.1378 154.523 77.3719 157.511 78.597C158.064 78.8237 158.343 79.1301 158.362 79.6991C158.528 84.6488 158.387 89.5724 157.226 94.4214C157.05 95.1589 156.652 95.003 156.184 94.8166C151.151 92.8182 146.054 90.9929 140.896 89.3427C134.569 87.319 128.155 85.6226 121.644 84.2924C120.991 84.1589 120.784 84.4788 120.535 84.8851C118.465 88.2607 115.778 91.0436 112.441 93.1724C108.832 95.475 104.905 96.8239 100.613 97.1923C94.4672 97.7202 88.8822 96.2207 83.7871 92.8115C79.3899 89.8691 76.2828 85.8605 74.268 81.0025C73.9824 80.312 73.6163 80.1875 72.9899 80.227C69.8343 80.4246 66.6705 80.529 63.523 80.8161C59.3742 81.1934 55.2335 81.6453 51.1048 82.2418C45.4408 83.0598 39.8357 84.1604 34.2581 85.4079C32.1695 85.8754 30.1488 86.6434 28.0654 87.14C25.4526 87.7634 22.9054 88.6008 20.3262 89.333C19.8721 89.462 19.4702 89.7662 18.9706 89.7372C18.0139 90.0764 17.1564 89.6656 16.3302 89.3099C11.3268 87.1564 8.43293 83.3618 7.62389 77.9759C7.56946 77.5889 7.5016 77.2101 7.92663 76.9737Z" fill="#58585A"/>
<path fill-rule="evenodd" clip-rule="evenodd" d="M31.6592 19.2384C32.0596 19.3152 32.296 18.9976 32.5838 18.8313C36.7848 16.4034 41.2469 14.9509 46.16 15.0776C51.9777 15.2282 56.6015 18.4398 58.0913 23.4372C58.9526 26.3266 58.784 29.222 57.9183 32.0667C55.8804 38.7605 51.5355 43.6714 45.7596 47.3886C41.2275 50.3048 36.2912 51.9453 30.821 51.6552C24.5836 51.3249 19.9717 47.4594 19.0366 41.7104C18.5117 38.4824 19.1492 35.3969 20.3714 32.4105C21.0947 30.641 22.0469 28.9961 23.1445 27.4317C23.3175 27.1864 23.6269 26.9948 23.5583 26.6197C24.3375 25.7898 25.1175 24.9606 25.8952 24.1299C27.6289 22.2777 29.6787 20.7991 31.6592 19.2384Z" fill="#FEFEFE"/>
<path fill-rule="evenodd" clip-rule="evenodd" d="M7.92674 76.9734C7.58075 77.9017 7.94911 78.807 8.18324 79.6436C9.6261 84.8118 12.9681 88.1575 18.1259 89.666C18.3928 89.7436 18.6911 89.716 18.9744 89.7369C16.4146 90.6026 13.8488 91.4504 11.2964 92.3362C8.82824 93.1922 6.34519 94.011 3.95237 95.0668C3.3715 95.3241 3.23579 95.0594 3.10903 94.5904C2.68176 93.0066 2.48491 91.3825 2.20827 89.7712C1.6699 86.6304 1.88092 83.4644 1.82276 80.3072C1.81009 79.6033 2.03751 79.2245 2.73023 78.9755C4.47731 78.3484 6.14386 77.5103 7.92674 76.9734Z" fill="#363638"/>
<path fill-rule="evenodd" clip-rule="evenodd" d="M99.101 51.6398C109.509 51.513 118.294 60.15 118.186 70.8965C118.083 81.37 109.727 89.9056 98.9653 89.8787C88.2412 89.8519 79.9145 81.1508 79.9197 70.7183C79.9242 60.2499 88.4717 51.4817 99.101 51.6398Z" fill="#231F20"/>
<path fill-rule="evenodd" clip-rule="evenodd" d="M81.5433 70.6053C81.6618 60.9162 89.5822 53.1121 99.1811 53.227C109.075 53.3455 116.667 61.2704 116.53 71.3398C116.402 80.7627 108.306 88.3632 98.5421 88.2245C89.1945 88.0918 81.4277 80.0416 81.5433 70.6053Z" fill="#FEFEFE"/>
<path fill-rule="evenodd" clip-rule="evenodd" d="M99.0789 57.2629C106.556 57.3039 112.581 63.3751 112.519 70.8093C112.459 78.2488 106.439 84.226 99.0282 84.2081C91.5291 84.1894 85.5384 78.1063 85.5974 70.5692C85.6533 63.2192 91.7297 57.2219 99.0789 57.2629Z" fill="#231F20"/>
<path fill-rule="evenodd" clip-rule="evenodd" d="M111.457 70.9493C111.118 78.1867 105.437 83.4391 98.3152 83.0991C91.7273 82.7844 86.3116 76.8557 86.6509 70.3304C87.0118 63.3905 92.7839 58.0069 99.5053 58.3409C106.293 58.6787 111.761 64.4471 111.457 70.9493Z" fill="#FEFEFE"/>
</svg>
